<?xml version="1.0" encoding="UTF-8" standalone="no"?><!DOCTYPE svg PUBLIC "-//W3C//DTD SVG 1.1//EN" "http://www.w3.org/Graphics/SVG/1.1/DTD/svg11.dtd">
<svg height="100%" style="fill-rule:evenodd;clip-rule:evenodd;stroke-linecap:round;stroke-linejoin:round;" xmlns="http://www.w3.org/2000/svg" xml:space="preserve" width="100%" version="1.1" viewBox="0 0 4400 1024">
<defs/>
<g id="Layer1">
<g opacity="1">
<g opacity="1">
<g opacity="1">
<g opacity="1">
<path stroke="#ad502f" stroke-opacity="0" stroke-width="0.1" d="M369.028+825.899C369.028+825.899+369.028+825.899+368.621+909.781C368.584+917.509+364.628+937.318+336.125+955.073C307.317+973.017+271.099+974.763+242.696+954.667C221.167+939.434+211.075+918.11+211.012+909.578C210.403+827.117+209.725+826.825+210.408+826.825" fill="#fb944d" stroke-linecap="round" opacity="1" stroke-linejoin="round" stroke-dasharray="8.739314005097606,7.602800713569821,12.66447164221653,6.381071260847818"/>
<path stroke="#ad502f" stroke-opacity="0" stroke-width="0.1" d="M210.244+180.191L369.158+180.191L369.158+830.89L210.244+830.89L210.244+180.191Z" fill="#fb944d" stroke-linecap="round" opacity="1" stroke-linejoin="round" stroke-dasharray="8.739314005097606,7.602800713569821,12.66447164221653,6.381071260847818"/>
<path stroke="#ad502f" stroke-opacity="0" stroke-width="0.1" d="M210.304+185.817C210.304+185.817+210.304+185.817+211.151+101.938C211.229+94.2096+215.288+74.4219+243.885+56.8167C272.786+39.0241+309.013+37.4686+337.31+57.7135C358.758+73.0592+368.739+94.4357+368.757+102.969C368.933+185.431+369.609+185.727+368.927+185.724" fill="#fb944d" stroke-linecap="round" opacity="1" stroke-linejoin="round" stroke-dasharray="8.739314005097606,7.602800713569821,12.66447164221653,6.381071260847818"/>
</g>
<g opacity="1">
<path stroke="#ad502f" stroke-opacity="0" stroke-width="0.1" d="M798.906+825.899C798.906+825.899+798.906+825.899+798.499+909.781C798.462+917.509+794.506+937.318+766.003+955.073C737.195+973.017+700.977+974.763+672.574+954.667C651.045+939.434+640.953+918.11+640.89+909.578C640.281+827.117+639.603+826.825+640.286+826.825" fill="#fb944d" stroke-linecap="round" opacity="1" stroke-linejoin="round" stroke-dasharray="8.739314005097606,7.602800713569821,12.66447164221653,6.381071260847818"/>
<path stroke="#ad502f" stroke-opacity="0" stroke-width="0.1" d="M640.122+180.191L799.036+180.191L799.036+830.89L640.122+830.89L640.122+180.191Z" fill="#fb944d" stroke-linecap="round" opacity="1" stroke-linejoin="round" stroke-dasharray="8.739314005097606,7.602800713569821,12.66447164221653,6.381071260847818"/>
<path stroke="#ad502f" stroke-opacity="0" stroke-width="0.1" d="M640.182+185.817C640.182+185.817+640.182+185.817+641.029+101.938C641.107+94.2096+645.166+74.4219+673.763+56.8167C702.664+39.0241+738.891+37.4686+767.188+57.7135C788.636+73.0592+798.616+94.4357+798.635+102.969C798.811+185.431+799.487+185.727+798.805+185.724" fill="#fb944d" stroke-linecap="round" opacity="1" stroke-linejoin="round" stroke-dasharray="8.739314005097606,7.602800713569821,12.66447164221653,6.381071260847818"/>
</g>
</g>
<g opacity="1">
<g opacity="1">
<path stroke="#ad502f" stroke-opacity="0" stroke-width="0.1" d="M183.44+373.699C183.44+373.699+183.44+373.699+99.5582+374.134C91.8296+374.174+71.9822+370.417+53.9422+342.093C35.7101+313.467+33.6012+277.268+53.4114+248.665C68.4276+226.985+89.6491+216.679+98.1807+216.531C180.631+215.094+180.917+214.414+180.923+215.096" fill="#fb944d" stroke-linecap="round" opacity="1" stroke-linejoin="round" stroke-dasharray="8.739314005097606,7.602800713569821,12.66447164221653,6.381071260847818"/>
<path stroke="#ad502f" stroke-opacity="0" stroke-width="0.1" d="M827.523+208.448L829.117+367.354L178.45+373.879L176.857+214.973L827.523+208.448Z" fill="#fb944d" stroke-linecap="round" opacity="1" stroke-linejoin="round" stroke-dasharray="8.739314005097606,7.602800713569821,12.66447164221653,6.381071260847818"/>
<path stroke="#ad502f" stroke-opacity="0" stroke-width="0.1" d="M821.898+208.564C821.898+208.564+821.898+208.564+905.781+208.57C913.51+208.57+933.337+212.431+951.228+240.85C969.31+269.571+971.229+305.781+951.269+334.279C936.139+355.88+914.863+366.074+906.331+366.178C823.875+367.182+823.585+367.86+823.582+367.178" fill="#fb944d" stroke-linecap="round" opacity="1" stroke-linejoin="round" stroke-dasharray="8.739314005097606,7.602800713569821,12.66447164221653,6.381071260847818"/>
</g>
<g opacity="1">
<path stroke="#ad502f" stroke-opacity="0" stroke-width="0.1" d="M187.751+803.555C187.751+803.555+187.751+803.555+103.869+803.99C96.1406+804.03+76.2932+800.274+58.2532+771.949C40.0211+743.324+37.9123+707.124+57.7224+678.522C72.7386+656.841+93.9602+646.535+102.492+646.387C184.942+644.951+185.228+644.27+185.235+644.952" fill="#fb944d" stroke-linecap="round" opacity="1" stroke-linejoin="round" stroke-dasharray="8.739314005097606,7.602800713569821,12.66447164221653,6.381071260847818"/>
<path stroke="#ad502f" stroke-opacity="0" stroke-width="0.1" d="M831.834+638.304L833.428+797.21L182.761+803.736L181.168+644.829L831.834+638.304Z" fill="#fb944d" stroke-linecap="round" opacity="1" stroke-linejoin="round" stroke-dasharray="8.739314005097606,7.602800713569821,12.66447164221653,6.381071260847818"/>
<path stroke="#ad502f" stroke-opacity="0" stroke-width="0.1" d="M826.209+638.421C826.209+638.421+826.209+638.421+910.092+638.426C917.821+638.426+937.648+642.287+955.539+670.706C973.621+699.427+975.54+735.637+955.58+764.135C940.45+785.737+919.175+795.931+910.642+796.034C828.186+797.038+827.896+797.717+827.893+797.034" fill="#fb944d" stroke-linecap="round" opacity="1" stroke-linejoin="round" stroke-dasharray="8.739314005097606,7.602800713569821,12.66447164221653,6.381071260847818"/>
</g>
</g>
</g>
<g opacity="1">
<path d="M1103.74+771.524L1103.74+941.064L1273.28+941.064L1273.28+771.524L1103.74+771.524Z" fill="#fb944d" opacity="1"/>
<path d="M1387.94+144.324L1387.94+279.564L1558.46+279.564L1558.46+144.324L1387.94+144.324ZM1385.98+360.904C1391.86+401.084+1393.82+438.324+1393.82+498.104L1393.82+803.864C1393.82+861.684+1391.86+892.064+1385.98+941.064L1559.44+941.064C1553.56+899.904+1551.6+860.704+1551.6+802.884L1551.6+499.084C1551.6+434.404+1553.56+398.144+1559.44+360.904L1385.98+360.904Z" fill="#fb944d" opacity="1"/>
<path d="M1842.66+941.064C1836.78+893.044+1834.82+856.784+1834.82+803.864L1834.82+604.924C1876.96+531.424+1937.72+486.344+1995.54+486.344C2019.06+486.344+2038.66+492.224+2053.36+503.004C2076.88+520.644+2084.72+543.184+2084.72+594.144L2084.72+803.864C2084.72+858.744+2082.76+895.004+2076.88+941.064L2248.38+941.064C2242.5+900.884+2240.54+863.644+2240.54+803.864L2240.54+556.904C2240.54+423.624+2168.02+349.144+2037.68+349.144C1954.38+349.144+1892.64+376.584+1831.88+439.304C1832.86+420.684+1833.84+407.944+1833.84+400.104L1833.84+360.904L1672.14+360.904C1678.02+398.144+1679.98+435.384+1679.98+498.104L1679.98+803.864C1679.98+860.704+1678.02+896.964+1672.14+941.064L1842.66+941.064Z" fill="#fb944d" opacity="1"/>
<path d="M2807.96+941.064L2967.7+941.064C2961.82+894.024+2959.86+860.704+2959.86+797.984L2959.86+285.444C2959.86+228.604+2961.82+189.404+2967.7+144.324L2800.12+144.324C2806+186.464+2807.96+222.724+2807.96+286.424L2807.96+369.724C2807.96+388.344+2807.96+400.104+2808.94+413.824L2809.92+427.544C2788.36+404.024+2776.6+394.224+2751.12+380.504C2708+356.984+2662.92+346.204+2610+346.204C2441.44+346.204+2335.6+462.824+2335.6+650.004C2335.6+749.964+2365+832.284+2420.86+888.144C2467.9+934.204+2530.62+956.744+2610+956.744C2699.18+956.744+2757+933.224+2809.92+875.404C2808.94+891.084+2807.96+894.024+2807.96+904.804L2807.96+941.064ZM2805.02+649.024C2805.02+705.864+2784.44+759.764+2750.14+791.124C2723.68+814.644+2680.56+830.324+2640.38+830.324C2605.1+830.324+2566.88+815.624+2542.38+792.104C2510.04+761.724+2492.4+710.764+2492.4+650.984C2492.4+544.164+2550.22+471.644+2636.46+471.644C2737.4+471.644+2805.02+542.204+2805.02+649.024Z" fill="#fb944d" opacity="1"/>
<path d="M3640.96+693.124C3639+674.504+3639+673.524+3639+669.604C3635.08+596.104+3630.18+564.744+3612.54+516.724C3570.4+404.024+3477.3+341.304+3348.92+341.304C3172.52+341.304+3055.9+464.784+3055.9+650.984C3055.9+746.044+3086.28+829.344+3142.14+884.224C3193.1+935.184+3266.6+961.644+3354.8+961.644C3443.98+961.644+3518.46+934.204+3570.4+882.264C3596.86+856.784+3611.56+834.244+3633.12+787.204L3491.02+745.064C3470.44+804.844+3423.4+837.184+3354.8+837.184C3307.76+837.184+3269.54+820.524+3243.08+788.184C3223.48+763.684+3214.66+739.184+3209.76+693.124L3640.96+693.124ZM3212.7+579.444C3231.32+503.004+3278.36+463.804+3350.88+463.804C3395.96+463.804+3433.2+480.464+3456.72+510.844C3471.42+530.444+3478.28+548.084+3484.16+579.444L3212.7+579.444Z" fill="#fb944d" opacity="1"/>
<path d="M4307.36+941.064C4284.82+912.644+4260.32+881.284+4234.84+846.984L4084.9+636.284L4220.14+446.164C4234.84+425.584+4259.34+393.244+4284.82+360.904L4101.56+360.904C4091.76+384.424+4077.06+410.884+4057.46+439.304L3995.72+532.404L3933+439.304C3917.32+415.784+3902.62+388.344+3890.86+360.904L3704.66+360.904C3738.96+404.024+3757.58+427.544+3769.34+445.184L3905.56+636.284L3753.66+850.904C3735.04+876.384+3704.66+915.584+3683.1+941.064L3872.24+941.064C3889.88+906.764+3900.66+889.124+3919.28+860.704L3994.74+746.044L4069.22+856.784C4087.84+884.224+4097.64+901.864+4116.26+941.064L4307.36+941.064Z" fill="#fb944d" opacity="1"/>
</g>
</g>
</g>
</svg>
